<svg width="272" height="313" viewBox="0 0 272 313" fill="none" xmlns="http://www.w3.org/2000/svg">
<path fill-rule="evenodd" clip-rule="evenodd" d="M137.992 0.0205679C161.987 -0.93473 175.746 31.644 197.02 44.2276C219.518 57.5352 252.835 51.7373 266.425 75.9882C279.911 100.052 265.112 131.592 261.808 159.834C258.915 184.569 257.667 209.245 248.201 231.782C238.22 255.546 225.417 278.519 205.926 292.883C185.975 307.585 161.806 312.887 137.992 312.998C114.12 313.108 89.0191 309.428 69.7362 293.514C51.0357 278.081 46.1131 250.043 34.3711 227.482C22.5182 204.707 -2.23919 186.12 0.162996 159.834C2.60873 133.072 30.8789 120.54 46.0394 99.8039C58.407 82.8877 67.3119 64.0315 81.3166 48.8342C98.7478 29.9185 113.848 0.98185 137.992 0.0205679Z" fill="#60992D"/>
</svg>
