<svg width="313" height="299" viewBox="0 0 313 299" fill="none" xmlns="http://www.w3.org/2000/svg">
<path fill-rule="evenodd" clip-rule="evenodd" d="M84.4694 6.61696C112.466 -11.4287 148.931 13.9652 180.721 24.5777C207.501 33.518 233.222 43.8366 253.957 63.1983C275.535 83.346 291.792 107.949 300.318 136.25C309.96 168.255 318.686 203.391 305.348 233.78C291.714 264.844 262.724 290.545 229.629 297.309C198.712 303.628 172.996 272.503 141.773 267.212C110.366 261.891 75.9685 283.444 48.72 266.655C19.9893 248.953 -1.56842 213.815 0.41187 180.114C2.35053 147.122 43.9676 133.08 58.3083 103.481C73.2212 72.6998 55.8509 25.0634 84.4694 6.61696Z" fill="#60992D"/>
</svg>
