<svg width="346" height="313" viewBox="0 0 346 313" fill="none" xmlns="http://www.w3.org/2000/svg">
<path fill-rule="evenodd" clip-rule="evenodd" d="M276.442 6.7881C311.944 23.8815 335.344 62.4236 343.867 99.1343C351.849 133.51 326.785 162.04 320.228 195.366C312.947 232.364 333.477 282.417 303.403 304.771C273.444 327.039 226.929 295.897 187.31 294.163C148.45 292.462 105.273 319.885 74.0135 294.732C42.3244 269.233 63.1875 220.91 50.2481 183.877C38.1986 149.39 -5.86784 121.171 1.51271 87.2306C8.8606 53.4408 51.7609 42.9018 83.909 29.0842C110.46 17.6725 139.812 18.5182 169.333 15.0995C205.659 10.8929 242.001 -9.79468 276.442 6.7881Z" fill="#60992D"/>
</svg>
